PathFileType	4	(X/Y/Z)	Patient4_TMGait_0pt2_01_left_07.trc.trc
DataRate	CameraRate	NumFrames	NumMarkers	Units	OrigDataRate	OrigDataStartFrame	OrigNumFrames
41.543026706231	41.543026706231	4	33	mm	41.543026706231	18	       141
Frame#	Time	Sacral			L.Shoulder			Chest			R.Shoulder			Neck			R.ASIS			L.ASIS			R.Thigh.Superior			R.Thigh.Lateral			R.Thigh.Inferior			R.Patella			L.Thigh.Superior			L.Thigh.Lateral			L.Thigh.Inferior			L.Patella			L.Shank.Superior			L.Shank.Lateral			L.Shank.Inferior			R.Shank.Superior			R.Shank.Lateral			R.Shank.Inferior			R.Heel			R.Midfoot.Superior			R.Midfoot.Lateral			R.Toe			L.Heel			L.Midfoot.Lateral			L.Midfoot.Superior			L.Toe			L.Elbow			L.Wrist			R.Elbow			R.Wrist			
		X1	Y1	Z1	X2	Y2	Z2	X3	Y3	Z3	X4	Y4	Z4	X5	Y5	Z5	X6	Y6	Z6	X7	Y7	Z7	X8	Y8	Z8	X9	Y9	Z9	X10	Y10	Z10	X11	Y11	Z11	X12	Y12	Z12	X13	Y13	Z13	X14	Y14	Z14	X15	Y15	Z15	X16	Y16	Z16	X17	Y17	Z17	X18	Y18	Z18	X19	Y19	Z19	X20	Y20	Z20	X21	Y21	Z21	X22	Y22	Z22	X23	Y23	Z23	X24	Y24	Z24	X25	Y25	Z25	X26	Y26	Z26	X27	Y27	Z27	X28	Y28	Z28	X29	Y29	Z29	X30	Y30	Z30	X31	Y31	Z31	X32	Y32	Z32	X33	Y33	Z33	

18	15.369214285714	796.103275372821	998.494912743533	620.073101873868	936.916664542645	1424.675440189529	406.832440446819	1074.436957243545	1352.089476547998	537.510801785927	1040.568215731641	1426.274381533279	726.487747852697	963.144667005289	1486.000303158369	562.421723172009	1043.623479637384	927.630186783232	683.217609488740	974.104882153278	961.633396364812	418.845521699757	1069.018980568208	725.847435406888	632.934995929336	995.974360617807	611.773149740629	695.594517194083	1055.278154556284	565.017616157153	599.410726958543	1051.628764682793	470.982857166576	601.102409711050	1058.738513637369	777.307067876533	439.987719468787	1008.156800577149	652.069420143150	359.146936378520	1110.142483816302	590.590365907097	416.514537688256	1134.373804872598	520.449834045985	405.823181870049	1107.782690372824	446.967529677741	389.135277134623	1022.485521603364	332.294594758075	329.591551794997	1096.153729875475	217.298022778788	372.575794684577	1004.874350757834	385.995940268103	608.834996889422	921.744549513869	291.821501927035	671.575535774407	939.217153259792	196.392468315530	601.482936341168	778.418710549422	44.666211269396	573.077862288871	951.534846373704	96.524973170995	608.518590352880	861.690647782177	37.606898001335	647.421772351700	1069.934382779420	40.772478725579	637.749069301537	989.967937610054	44.324329645349	399.544173133063	1060.977825922370	50.665342286354	317.005793513848	1139.409268800765	120.343756625431	340.904501895687	1268.566532095905	83.462476423427	305.528814321553	783.402330752484	1105.089233260576	323.952325082590	737.747946165700	849.135996485904	352.065116485543	1199.462999750900	1121.709117263180	838.122023129437	1449.887003147290	1094.525016632788	781.241780678461	
19	15.393285714286	794.980475054651	1000.310024832394	619.258337250168	934.773785531831	1426.030786914271	405.086081302182	1073.460387596575	1352.871574634316	534.287240926456	1041.722897967779	1427.380991212370	723.409332752215	962.688419050344	1487.092000335848	560.409919577218	1042.360054952406	928.187785060863	680.842218478611	971.397828692290	962.687816302673	416.825768413771	1065.010024350488	725.751006711139	631.527166065951	990.864914485011	612.710286594977	695.163449601143	1049.323550212526	564.958530269998	599.140736914340	1044.701428032753	471.507316265941	601.269110134183	1053.851055971849	776.618345183236	437.344534146162	1000.465280329512	651.875770590270	357.247733647552	1102.160449920877	589.770350423693	413.882843815904	1125.683353874465	521.070860417428	404.381003707118	1102.337342086893	447.820497237879	387.922161002679	1022.426414117930	329.365483293059	327.593144591300	1100.326974787063	217.422718387948	371.946115839316	998.517013223695	386.681278147721	609.124118868656	915.667986936190	292.207403432561	671.843174034025	933.746103475196	196.810325980508	601.701133903376	773.503879770718	44.619228204945	573.126116848060	946.660086292279	96.558270504224	608.650570051114	856.787805676541	37.570044660627	647.476131082505	1065.026984431125	40.806614248937	637.741781925401	1000.324053227153	41.193112122676	398.308366163843	1072.482457377055	48.599869079785	316.745579396032	1148.431330170972	120.965558706329	341.194275100201	1279.410571865848	87.469358177102	308.316804135362	776.618903495908	1108.672649458198	325.939759611056	725.383990385703	854.199260549109	357.189157005584	1209.582492911421	1128.063951722606	831.127874423803	1459.804380218889	1117.493931537723	768.869966017139	
20	15.417357142857	794.046928856230	1001.708486197600	618.003013110847	932.936093164637	1426.936873527499	402.877383425873	1072.571226083673	1353.361312948040	530.887948027852	1042.544646914295	1428.214616764662	720.046603193919	962.220015540526	1487.854430555406	557.945341152308	1041.258098058877	928.521233512012	678.408573622026	969.124544000325	963.269633455301	414.671952114189	1061.338901701850	725.501265070141	630.037419001750	986.141233450080	613.449471655703	694.602233292702	1043.779925271829	564.743066340044	598.763959846185	1038.178624998356	471.837766117422	601.299001276455	1049.423190523518	775.370546173940	434.535117105702	993.034060680684	651.120754447984	355.424585272232	1094.466768626149	588.370851776043	411.320895621564	1116.880188558340	520.799365071584	403.022376302737	1096.365254252149	447.898799474609	386.738362915830	1020.895996656162	326.568800566026	326.025331306012	1102.118154203559	217.309868491805	371.567003504745	992.503123970250	387.156391849988	609.287497983932	909.831811706845	292.480723222009	672.038131171100	928.410292138871	197.104974238295	601.869300832133	768.575669948596	44.527372714503	573.171656548078	941.782342143901	96.582302816350	608.768525984504	851.869924418563	37.517877845274	647.541719533888	1060.108570034967	40.868375711353	637.732405910816	1007.180425693177	38.943762190339	397.742569391687	1080.123641411932	47.076072362023	316.873808229914	1154.132789634218	121.352099128361	341.636148094006	1286.343486590775	90.375750251609	310.597365676410	771.468020067585	1111.116649150236	327.394157155038	715.715721134048	857.912066978725	361.469914148908	1218.488307618541	1133.968290643112	823.934234831090	1467.433701877555	1138.885529068030	756.648552421852	
21	15.441428571429	793.331131716405	1002.699106810258	616.339182331982	931.351328429764	1427.399164018719	400.192931820374	1071.773334769009	1353.584851453886	527.266534077449	1043.084959585393	1428.796744533049	716.382449976478	961.727173596064	1488.301049366468	555.008159757541	1040.371962962991	928.650546587074	675.898881889448	967.309856011605	963.409885031078	412.367491043821	1058.059580076110	725.095419317794	628.437531216861	981.847516263715	613.988093470962	693.873201354752	1038.672755927826	564.372420503679	598.228672452163	1032.080729018758	471.972230893886	601.133294011309	1045.577299704907	773.682398084489	431.597828131797	986.101084514922	649.888428694845	353.709585476047	1087.298732964898	586.514129962016	408.875603196815	1108.288441823308	519.777448451798	401.756903359149	1090.177845363406	447.285568035757	385.589851772737	1018.158594292554	323.888921958689	324.836621603495	1101.838246332085	216.855794669689	371.383706739348	986.842526006291	387.422287303983	609.281203833538	904.263155406890	292.646590238193	672.139097582754	923.211938838181	197.274268132108	601.971371622442	763.637268808700	44.392033086402	573.220402531943	936.890905209423	96.582881357150	608.851913213025	846.940556072055	37.447172210964	647.618413427602	1055.182748583605	40.954347201326	637.719667444619	1010.748190024738	37.391458890357	397.693390353717	1084.187155135725	45.866120982369	317.278267151313	1156.862528053174	121.291241586463	342.189556248048	1289.797585177360	91.887431146878	312.409242772910	767.794984878484	1112.452904485184	328.163571113496	708.600635995920	860.262733482777	364.683265561027	1226.181565648602	1139.344247639632	816.647393091963	1472.998939882782	1158.401392948182	744.712739958183	
